<?xml version="1.0" encoding="utf-8"?>
<!-- Generator: Adobe Illustrator 25.0.1, SVG Export Plug-In . SVG Version: 6.00 Build 0)  -->
<svg version="1.0" id="katman_1" xmlns="http://www.w3.org/2000/svg" xmlns:xlink="http://www.w3.org/1999/xlink" x="0px" y="0px"
	 viewBox="0 0 560 400" style="enable-background:new 0 0 560 400;" xml:space="preserve">
<style type="text/css">
	.st0{fill-rule:evenodd;clip-rule:evenodd;fill:url(#SVGID_1_);}
</style>
<linearGradient id="SVGID_1_" gradientUnits="userSpaceOnUse" x1="-257.5912" y1="739.1405" x2="-256.2787" y2="739.1405" gradientTransform="matrix(175.8233 7.7095 7.7095 -175.8233 39764.4297 132139.3281)">
	<stop  offset="0" style="stop-color:#6B57A5"/>
	<stop  offset="1" style="stop-color:#59499E"/>
</linearGradient>
<path class="st0" d="M223.3,154c-0.5,4.1-1,8.4-1.3,12.7c-7.4,5.2-14.3,10.4-20.7,15.7c-3.3,2.7-6.5,5.5-9.5,8.3
	c-23.8-24.3-33.9-46.1-27.4-57.3c5.7-9.9,25-12.8,52.1-7.4c1.1-4.7,2.1-9.2,3.4-13.4c-32.8-6.6-57.9-2.2-67.3,14
	c-2.5,4.3-3.8,9.2-3.8,14.3v0.5c0.2,23.1,22.9,54,60.8,83.1c3.9,3,8.1,6,12.4,9.1c0.8,9.4,1.9,18.5,3.4,27c0.7,3.8,1.4,7.5,2.1,11.1
	c-32.8,8.5-56.7,6.3-63.2-4.9c-5.7-9.9,1.5-28.2,19.6-48.9l-9.4-9.9c-22.4,25.3-31.4,49.4-21.9,65.8c6.6,11.5,20.9,17,40.2,17
	c19.4,0,43.7-5.6,70.4-16.4c0.7-0.3,1.4-0.6,2.1-0.9c4.7-1.9,9.4-4,14.1-6.2c0.2-0.1,0.4-0.2,0.6-0.3c8.5,3.9,16.9,7.4,25.1,10.4
	c3.6,1.4,7.2,2.5,10.7,3.7c-9.1,32.7-22.9,52.4-35.8,52.4c-11.5,0-23.7-15.4-32.5-41.7c-4.5,1.6-8.9,2.9-13.2,4.1
	c10.7,31.8,27,51.2,45.8,51.2c27.4,0,49.2-41.1,56.7-101c0.5-4.1,0.9-8.4,1.3-12.6c7.7-5.4,14.9-10.9,21.6-16.6
	c0.4-0.3,0.8-0.6,1.2-1c2.5-2.1,5-4.3,7.4-6.5c23.9,24.2,34,46.1,27.5,57.3c-5.4,9.3-23,12.4-47.1,8.4c-1.7-0.3-3.2-0.6-4.9-0.9
	c-1.1,4.6-2.1,9-3.4,13.2c2,0.4,4.1,0.8,6,1.1c7.7,1.3,14.8,1.9,21.3,1.9c19.6,0,33.5-5.7,39.9-16.9c8.6-14.8,2.3-36.3-17.6-60.5
	c-10.3-12.6-23.8-25.2-39.4-37.3c-4-3.1-8.2-6.1-12.4-9.2c-0.8-9.4-1.9-18.5-3.5-27.1c-0.7-3.8-1.4-7.5-2.1-11.1
	c5.6-1.5,10.9-2.6,16.1-3.5c24.2-4,41.8-0.9,47.1,8.4c5.7,9.7-1.3,27.6-18.8,47.9c3.4,3.3,6.5,6.6,9.4,9.8c1.3-1.4,2.4-2.8,3.5-4.2
	c19.9-24.2,26.2-45.7,17.6-60.5c-8.6-14.8-30.3-20.2-61.2-15c-14.3,2.3-30,6.9-46.3,13.2c-0.7,0.3-1.3,0.5-1.9,0.8
	c-5.5,2.1-10.9,4.5-16.4,7c-0.5,0.2-1,0.5-1.5,0.7c-8.6-4-17-7.6-25.2-10.6c-3.6-1.4-7.2-2.5-10.7-3.7c9.1-32.6,22.9-52.3,35.8-52.3
	c11.5,0,23.8,15.5,32.6,41.8c4.5-1.5,8.9-2.8,13.2-4.1c-11-31.5-27.3-51-46.2-51C252.6,53,230.7,94.1,223.3,154L223.3,154z
	 M310.4,149.1c-0.2-0.2-0.5-0.3-0.7-0.4c-4.6-2.6-9.3-5.2-13.7-7.6c0.4-0.2,0.8-0.4,1.2-0.5c5.6-2.3,11.1-4.5,16.5-6.3
	c1.9-0.7,3.7-1.3,5.5-1.9c0.8,3.6,1.5,7.2,2.1,11c0.8,4.4,1.4,8.9,1.9,13.4C319,154.2,314.7,151.6,310.4,149.1L310.4,149.1z
	 M238.6,143.9c0.7-4,1.4-7.8,2.2-11.5c3.6,1.2,7.2,2.3,10.9,3.8c4,1.5,8.1,3.1,12.3,4.9c-4.6,2.4-9.3,5-13.8,7.6
	c-0.2,0.1-0.4,0.2-0.6,0.4c-4.4,2.5-8.7,5.2-12.9,7.8C237.3,152.4,237.9,148.1,238.6,143.9z M257,239.7c-3.3-1.9-6.5-3.8-9.6-5.7
	c-4.3-2.6-8.4-5.3-12.4-8c-0.6-8.3-0.9-17-0.9-25.9c0-4.7,0.1-9.3,0.3-13.7c0.2-4.2,0.4-8.2,0.7-12.2c6.9-4.7,14.2-9.3,21.9-13.7
	c2.9-1.8,5.9-3.4,8.9-5c4.7-2.5,9.4-4.9,14-7.2c7.5,3.6,15.1,7.7,22.9,12.2c3.3,1.9,6.5,3.8,9.6,5.7c4.3,2.6,8.4,5.3,12.4,8
	c0.6,8.3,0.9,17,0.9,25.9c0,4.7-0.1,9.3-0.3,13.7c-0.2,4.1-0.4,8.2-0.7,12.2c-6.9,4.7-14.2,9.3-21.9,13.7c-2,1.2-4,2.3-6,3.4
	c-5.2,2.9-10.3,5.6-15.4,8.1c-0.5,0.2-1,0.5-1.5,0.7C272.3,248.2,264.6,244.1,257,239.7L257,239.7z M208.9,206.3
	c-2.5-2-4.9-4.2-7.2-6.2c3.2-2.8,6.5-5.7,10-8.6c2.9-2.3,5.9-4.8,9.2-7.1c-0.2,3.9-0.3,7.9-0.3,11.9v3.8c0,5.4,0.1,10.5,0.3,15.7
	C216.7,212.7,212.6,209.5,208.9,206.3z M339.3,204v-3.9c0-5.4-0.1-10.5-0.3-15.7c4.2,3.1,8.2,6.3,12,9.4c2.4,2,4.9,4.2,7.1,6.2
	c-2.5,2.2-5.2,4.6-7.9,6.8c-0.4,0.3-0.8,0.7-1.2,1c-3.2,2.6-6.6,5.4-10.1,8C339.1,212,339.3,208,339.3,204L339.3,204z M238.7,256.8
	c-0.8-4.4-1.4-8.9-1.9-13.4c4.2,2.6,8.4,5.2,12.8,7.7c0.2,0.2,0.5,0.3,0.7,0.4c4.6,2.6,9.2,5.2,13.8,7.6c0,0-0.1,0-0.1,0.1
	c-4.9,2-9.6,3.9-14.3,5.7c-0.7,0.3-1.4,0.5-2,0.8c-2.2,0.8-4.5,1.6-6.7,2.2C240,264.3,239.4,260.6,238.7,256.8z M308.1,264
	c-4.1-1.6-8.2-3.1-12.4-4.9l1.8-0.9c4-2.1,8-4.4,12.1-6.6c1.2-0.7,2.3-1.4,3.4-2c3.4-2,6.7-4.1,10-6.1c-0.6,4.4-1.2,8.8-1.9,12.9
	c-0.7,4-1.5,7.8-2.2,11.6C315.4,266.6,311.8,265.4,308.1,264L308.1,264z M262.4,200.1c0-9.6,7.9-17.5,17.5-17.5s17.5,7.9,17.5,17.5
	s-7.9,17.5-17.5,17.5C270.2,217.6,262.4,209.7,262.4,200.1z"/>
</svg>
